<svg xmlns="http://www.w3.org/2000/svg" version="1.1" xmlnsXlink="http://www.w3.org/1999/xlink" xmlnsSvgjs="http://svgjs.dev/svgjs" width="1500" height="242" viewBox="0 0 1500 242"><g transform="matrix(1,0,0,1,-0.9090909090909918,0.30808992591335027)"><svg viewBox="0 0 396 64" data-background-color="#ffffff" preserveAspectRatio="xMidYMid meet" height="242" width="1500" xmlns="http://www.w3.org/2000/svg" xmlnsXlink="http://www.w3.org/1999/xlink"><g id="tight-bounds" transform="matrix(1,0,0,1,0.2400000000000091,-0.08147832751427586)"><svg viewBox="0 0 395.52 64.16295665502852" height="64.16295665502852" width="395.52"><g><svg viewBox="0 0 395.52 64.16295665502852" height="64.16295665502852" width="395.52"><g><svg viewBox="0 0 395.52 64.16295665502852" height="64.16295665502852" width="395.52"><g id="textblocktransform"><svg viewBox="0 0 395.52 64.16295665502852" height="64.16295665502852" width="395.52" id="textblock"><g><svg viewBox="0 0 395.52 64.16295665502852" height="64.16295665502852" width="395.52"><g transform="matrix(1,0,0,1,0,0)"><svg width="395.52" viewBox="1.1 -36.55 286.66999999999996 46.51" height="64.16295665502852" data-palette-color="#0093fb"><path d="M25.39-20.95L25.39-20.95 20.51-16.04Q20.14-17.07 19.51-17.88 18.87-18.7 18.08-19.26 17.29-19.82 16.36-20.12 15.43-20.41 14.45-20.41L14.45-20.41Q13.09-20.41 11.88-19.85 10.67-19.29 9.78-18.27 8.89-17.26 8.37-15.87 7.86-14.48 7.86-12.79L7.86-12.79Q7.86-11.43 8.37-10.23 8.89-9.03 9.78-8.13 10.67-7.23 11.88-6.71 13.09-6.2 14.45-6.2L14.45-6.2Q15.43-6.2 16.33-6.47 17.24-6.74 18.03-7.24 18.82-7.74 19.45-8.46 20.07-9.18 20.46-10.06L20.46-10.06 25.34-5.15Q24.41-3.83 23.21-2.78 22-1.73 20.59-1 19.19-0.27 17.64 0.11 16.09 0.49 14.45 0.49L14.45 0.49Q11.69 0.49 9.27-0.55 6.84-1.59 5.02-3.39 3.2-5.2 2.15-7.62 1.1-10.03 1.1-12.79L1.1-12.79Q1.1-15.8 2.15-18.41 3.2-21.02 5.02-22.96 6.84-24.9 9.27-26.03 11.69-27.15 14.45-27.15L14.45-27.15Q16.09-27.15 17.66-26.73 19.24-26.32 20.67-25.52 22.09-24.73 23.3-23.58 24.51-22.44 25.39-20.95ZM53.51-13.31L53.51-13.31Q53.51-10.38 52.46-7.85 51.41-5.32 49.61-3.48 47.8-1.64 45.37-0.57 42.94 0.49 40.16 0.49L40.16 0.49Q37.4 0.49 34.97-0.57 32.54-1.64 30.72-3.48 28.9-5.32 27.85-7.85 26.8-10.38 26.8-13.31L26.8-13.31Q26.8-16.28 27.85-18.82 28.9-21.36 30.72-23.21 32.54-25.05 34.97-26.1 37.4-27.15 40.16-27.15L40.16-27.15Q42.94-27.15 45.37-26.16 47.8-25.17 49.61-23.35 51.41-21.53 52.46-18.98 53.51-16.43 53.51-13.31ZM46.8-13.31L46.8-13.31Q46.8-14.92 46.27-16.22 45.75-17.53 44.85-18.47 43.94-19.41 42.73-19.91 41.53-20.41 40.16-20.41L40.16-20.41Q38.79-20.41 37.58-19.91 36.37-19.41 35.48-18.47 34.59-17.53 34.08-16.22 33.57-14.92 33.57-13.31L33.57-13.31Q33.57-11.79 34.08-10.5 34.59-9.2 35.48-8.25 36.37-7.3 37.58-6.75 38.79-6.2 40.16-6.2L40.16-6.2Q41.53-6.2 42.73-6.71 43.94-7.23 44.85-8.15 45.75-9.08 46.27-10.4 46.8-11.72 46.8-13.31ZM78.61 0L76.41-3.05Q75.61-2.32 74.69-1.67 73.77-1.03 72.77-0.55 71.77-0.07 70.71 0.21 69.65 0.49 68.55 0.49L68.55 0.49Q66.13 0.49 64.01-0.37 61.88-1.22 60.29-2.8 58.69-4.37 57.77-6.63 56.86-8.89 56.86-11.69L56.86-11.69 56.86-26.15 63.5-26.15 63.5-11.69Q63.5-10.38 63.9-9.34 64.3-8.3 64.99-7.59 65.67-6.88 66.58-6.52 67.5-6.15 68.55-6.15L68.55-6.15Q69.58-6.15 70.49-6.63 71.41-7.1 72.09-7.89 72.77-8.67 73.16-9.66 73.55-10.64 73.55-11.69L73.55-11.69 73.55-26.15 80.22-26.15 80.22 0 78.61 0ZM92.01-1.76L92.01 9.96 85.3 9.96 85.3-26.15 86.91-26.15 89.57-23Q90.47-23.85 91.55-24.61 92.62-25.37 93.78-25.92 94.94-26.46 96.18-26.78 97.43-27.1 98.7-27.1L98.7-27.1Q101.46-27.1 103.89-26.11 106.32-25.12 108.13-23.32 109.95-21.51 111-18.96 112.05-16.41 112.05-13.31L112.05-13.31Q112.05-10.08 111-7.51 109.95-4.93 108.13-3.14 106.32-1.34 103.89-0.39 101.46 0.56 98.7 0.56L98.7 0.56Q97.82 0.56 96.95 0.37 96.09 0.17 95.24-0.16 94.4-0.49 93.58-0.9 92.77-1.32 92.01-1.76L92.01-1.76ZM105.36-13.31L105.36-13.31Q105.36-14.97 104.84-16.28 104.31-17.6 103.41-18.52 102.51-19.43 101.29-19.92 100.07-20.41 98.7-20.41L98.7-20.41Q97.33-20.41 96.12-19.92 94.91-19.43 94.01-18.52 93.11-17.6 92.58-16.28 92.06-14.97 92.06-13.31L92.06-13.31Q92.06-11.72 92.58-10.4 93.11-9.08 94.01-8.15 94.91-7.23 96.12-6.71 97.33-6.2 98.7-6.2L98.7-6.2Q100.07-6.2 101.29-6.71 102.51-7.23 103.41-8.15 104.31-9.08 104.84-10.4 105.36-11.72 105.36-13.31ZM141.05-26.1L141.05 0 139.44 0 136.86-3.59Q135.9-2.73 134.84-1.99 133.78-1.25 132.61-0.7 131.44-0.15 130.2 0.17 128.97 0.49 127.7 0.49L127.7 0.49Q124.94 0.49 122.51-0.44 120.08-1.37 118.26-3.14 116.45-4.91 115.4-7.47 114.35-10.03 114.35-13.31L114.35-13.31Q114.35-16.36 115.4-18.91 116.45-21.46 118.26-23.29 120.08-25.12 122.51-26.14 124.94-27.15 127.7-27.15L127.7-27.15Q128.97-27.15 130.21-26.83 131.46-26.51 132.63-25.95 133.8-25.39 134.87-24.63 135.93-23.88 136.86-23L136.86-23 139.44-26.1 141.05-26.1ZM134.34-13.31L134.34-13.31Q134.34-14.67 133.82-15.95 133.29-17.24 132.39-18.23 131.48-19.21 130.28-19.81 129.07-20.41 127.7-20.41L127.7-20.41Q126.33-20.41 125.12-19.95 123.92-19.48 123.02-18.58 122.13-17.68 121.62-16.35 121.11-15.01 121.11-13.31L121.11-13.31Q121.11-11.6 121.62-10.27 122.13-8.94 123.02-8.03 123.92-7.13 125.12-6.67 126.33-6.2 127.7-6.2L127.7-6.2Q129.07-6.2 130.28-6.8 131.48-7.4 132.39-8.39 133.29-9.38 133.82-10.66 134.34-11.94 134.34-13.31ZM166.78-14.94L166.78 0 160.12 0 160.12-26.15 161.73-26.15 163.93-23.61Q165.54-25.07 167.58-25.87 169.61-26.66 171.84-26.66L171.84-26.66Q174.23-26.66 176.35-25.74 178.48-24.83 180.06-23.23 181.65-21.63 182.57-19.49 183.48-17.36 183.48-14.94L183.48-14.94 183.48 0 176.82 0 176.82-14.94Q176.82-15.97 176.43-16.88 176.03-17.8 175.35-18.48 174.67-19.17 173.76-19.56 172.86-19.95 171.84-19.95L171.84-19.95Q170.79-19.95 169.86-19.56 168.93-19.17 168.25-18.48 167.56-17.8 167.17-16.88 166.78-15.97 166.78-14.94L166.78-14.94ZM213.48-13.31L213.48-13.31Q213.48-10.38 212.43-7.85 211.38-5.32 209.58-3.48 207.77-1.64 205.34-0.57 202.91 0.49 200.13 0.49L200.13 0.49Q197.37 0.49 194.94-0.57 192.51-1.64 190.69-3.48 188.87-5.32 187.82-7.85 186.77-10.38 186.77-13.31L186.77-13.31Q186.77-16.28 187.82-18.82 188.87-21.36 190.69-23.21 192.51-25.05 194.94-26.1 197.37-27.15 200.13-27.15L200.13-27.15Q202.91-27.15 205.34-26.16 207.77-25.17 209.58-23.35 211.38-21.53 212.43-18.98 213.48-16.43 213.48-13.31ZM206.77-13.31L206.77-13.31Q206.77-14.92 206.24-16.22 205.72-17.53 204.82-18.47 203.91-19.41 202.7-19.91 201.5-20.41 200.13-20.41L200.13-20.41Q198.76-20.41 197.55-19.91 196.34-19.41 195.45-18.47 194.56-17.53 194.05-16.22 193.54-14.92 193.54-13.31L193.54-13.31Q193.54-11.79 194.05-10.5 194.56-9.2 195.45-8.25 196.34-7.3 197.55-6.75 198.76-6.2 200.13-6.2L200.13-6.2Q201.5-6.2 202.7-6.71 203.91-7.23 204.82-8.15 205.72-9.08 206.24-10.4 206.77-11.72 206.77-13.31ZM235.14 0L230.08 0Q227.67 0 225.54-0.92 223.42-1.83 221.82-3.43 220.22-5.03 219.3-7.15 218.39-9.28 218.39-11.69L218.39-11.69 218.39-19.46 215.14-19.46 215.14-26.1 218.39-26.1 218.39-36.55 225.03-36.55 225.03-26.1 235.14-26.1 235.14-19.46 225.03-19.46 225.03-11.69Q225.03-10.64 225.42-9.73 225.81-8.81 226.49-8.13 227.18-7.45 228.11-7.04 229.03-6.64 230.08-6.64L230.08-6.64 235.14-6.64 235.14 0ZM261.77-21.46L249.27-6.4Q249.66-6.27 250.05-6.24 250.44-6.2 250.83-6.2L250.83-6.2Q251.81-6.2 252.71-6.47 253.62-6.74 254.41-7.24 255.2-7.74 255.82-8.46 256.45-9.18 256.84-10.06L256.84-10.06 261.72-5.15Q260.79-3.83 259.58-2.78 258.38-1.73 256.97-1 255.57-0.27 254.02 0.11 252.47 0.49 250.83 0.49L250.83 0.49Q248.07 0.49 245.64-0.54 243.21-1.56 241.4-3.39 239.58-5.22 238.53-7.75 237.48-10.28 237.48-13.31L237.48-13.31Q237.48-16.41 238.53-18.97 239.58-21.53 241.4-23.34 243.21-25.15 245.64-26.15 248.07-27.15 250.83-27.15L250.83-27.15Q252.47-27.15 254.03-26.76 255.59-26.37 257-25.63 258.4-24.9 259.62-23.84 260.84-22.78 261.77-21.46L261.77-21.46ZM244.92-9.84L252.69-20.14Q252.22-20.31 251.77-20.36 251.32-20.41 250.83-20.41L250.83-20.41Q249.46-20.41 248.26-19.91 247.05-19.41 246.16-18.48 245.27-17.55 244.75-16.25 244.24-14.94 244.24-13.31L244.24-13.31Q244.24-12.94 244.28-12.48 244.31-12.01 244.4-11.54 244.48-11.06 244.61-10.62 244.73-10.18 244.92-9.84L244.92-9.84ZM279.47 0L279.47 0 264.23 0 264.23-6.64 279.47-6.64Q280.15-6.64 280.64-7.13 281.13-7.62 281.13-8.3L281.13-8.3Q281.13-9.01 280.64-9.23 280.15-9.45 279.47-9.45L279.47-9.45 272.53-9.45Q270.8-9.45 269.29-10.11 267.77-10.77 266.65-11.9 265.53-13.04 264.88-14.55 264.23-16.06 264.23-17.8L264.23-17.8Q264.23-19.53 264.88-21.04 265.53-22.56 266.65-23.68 267.77-24.8 269.29-25.45 270.8-26.1 272.53-26.1L272.53-26.1 286.03-26.1 286.03-19.46 272.53-19.46Q271.85-19.46 271.36-18.97 270.87-18.48 270.87-17.8L270.87-17.8Q270.87-17.09 271.36-16.59 271.85-16.09 272.53-16.09L272.53-16.09 279.47-16.09Q281.18-16.09 282.69-15.52 284.2-14.94 285.33-13.92 286.45-12.89 287.11-11.45 287.77-10.01 287.77-8.3L287.77-8.3Q287.77-6.57 287.11-5.07 286.45-3.56 285.33-2.43 284.2-1.29 282.69-0.65 281.18 0 279.47 0Z" opacity="1" transform="matrix(1,0,0,1,0,0)" fill="#0093fb" class="wordmark-text-0" data-fill-palette-color="primary" id="text-0"></path></svg></g></svg></g></svg></g></svg></g><g></g></svg></g><defs></defs></svg><rect width="395.52" height="64.16295665502852" fill="none" stroke="none" visibility="hidden"></rect></g></svg></g></svg>