<svg xmlns="http://www.w3.org/2000/svg" version="1.1" xmlnsXlink="http://www.w3.org/1999/xlink" xmlnsSvgjs="http://svgjs.dev/svgjs" width="1500" height="1500" viewBox="0 0 1500 1500"><rect width="1500" height="1500" fill="#ffffff"></rect><g transform="matrix(0.6666666666666666,0,0,0.6666666666666666,249.39393939393938,664.5051186589503)"><svg viewBox="0 0 396 68" data-background-color="#ffffff" preserveAspectRatio="xMidYMid meet" height="257" width="1500" xmlns="http://www.w3.org/2000/svg" xmlns:xlink="http://www.w3.org/1999/xlink"><g id="tight-bounds" transform="matrix(1,0,0,1,0.2400000000000091,-0.06817938993356165)"><svg viewBox="0 0 395.52 68.13635877986715" height="68.13635877986715" width="395.52"><g><svg viewBox="0 0 495.4515249332459 85.35159501639345" height="68.13635877986715" width="395.52"><g transform="matrix(1,0,0,1,0,11.796059803278691)"><svg viewBox="0 0 395.52 61.759475409836064" height="61.759475409836064" width="395.52"><g id="textblocktransform"><svg viewBox="0 0 395.52 61.759475409836064" height="61.759475409836064" width="395.52" id="textblock"><g><svg viewBox="0 0 395.52 61.759475409836064" height="61.759475409836064" width="395.52"><g transform="matrix(1,0,0,1,0,0)"><svg width="395.52" viewBox="1.34 -36.55 297.83000000000004 46.51" height="61.759475409836064" data-palette-color="#1565c0"><path d="M27.49-9.69L31.2-3.59Q28.76-1.49 25.73-0.37 22.71 0.76 19.46 0.76L19.46 0.76Q16.97 0.76 14.66 0.11 12.35-0.54 10.34-1.72 8.33-2.91 6.67-4.57 5-6.23 3.82-8.24 2.64-10.25 1.99-12.56 1.34-14.87 1.34-17.36L1.34-17.36Q1.34-19.85 1.99-22.17 2.64-24.49 3.82-26.5 5-28.52 6.67-30.18 8.33-31.84 10.34-33.02 12.35-34.2 14.66-34.85 16.97-35.5 19.46-35.5L19.46-35.5Q22.71-35.5 25.73-34.39 28.76-33.28 31.2-31.15L31.2-31.15 27.49-25.05Q25.95-26.71 23.85-27.6 21.75-28.49 19.46-28.49L19.46-28.49Q17.14-28.49 15.11-27.61 13.09-26.73 11.57-25.23 10.06-23.73 9.18-21.69 8.3-19.65 8.3-17.36L8.3-17.36Q8.3-15.06 9.18-13.05 10.06-11.04 11.57-9.52 13.09-8.01 15.11-7.13 17.14-6.25 19.46-6.25L19.46-6.25Q21.75-6.25 23.85-7.14 25.95-8.03 27.49-9.69L27.49-9.69ZM58.91-13.31L58.91-13.31Q58.91-10.38 57.86-7.85 56.81-5.32 55-3.48 53.2-1.64 50.77-0.57 48.34 0.49 45.55 0.49L45.55 0.49Q42.8 0.49 40.37-0.57 37.94-1.64 36.12-3.48 34.3-5.32 33.25-7.85 32.2-10.38 32.2-13.31L32.2-13.31Q32.2-16.28 33.25-18.82 34.3-21.36 36.12-23.21 37.94-25.05 40.37-26.1 42.8-27.15 45.55-27.15L45.55-27.15Q48.34-27.15 50.77-26.16 53.2-25.17 55-23.35 56.81-21.53 57.86-18.98 58.91-16.43 58.91-13.31ZM52.19-13.31L52.19-13.31Q52.19-14.92 51.67-16.22 51.14-17.53 50.24-18.47 49.34-19.41 48.13-19.91 46.92-20.41 45.55-20.41L45.55-20.41Q44.19-20.41 42.98-19.91 41.77-19.41 40.88-18.47 39.99-17.53 39.48-16.22 38.96-14.92 38.96-13.31L38.96-13.31Q38.96-11.79 39.48-10.5 39.99-9.2 40.88-8.25 41.77-7.3 42.98-6.75 44.19-6.2 45.55-6.2L45.55-6.2Q46.92-6.2 48.13-6.71 49.34-7.23 50.24-8.15 51.14-9.08 51.67-10.4 52.19-11.72 52.19-13.31ZM84 0L81.81-3.05Q81-2.32 80.09-1.67 79.17-1.03 78.17-0.55 77.17-0.07 76.11 0.21 75.04 0.49 73.95 0.49L73.95 0.49Q71.53 0.49 69.4-0.37 67.28-1.22 65.68-2.8 64.08-4.37 63.17-6.63 62.25-8.89 62.25-11.69L62.25-11.69 62.25-26.15 68.89-26.15 68.89-11.69Q68.89-10.38 69.29-9.34 69.7-8.3 70.38-7.59 71.06-6.88 71.98-6.52 72.9-6.15 73.95-6.15L73.95-6.15Q74.97-6.15 75.89-6.63 76.8-7.1 77.49-7.89 78.17-8.67 78.56-9.66 78.95-10.64 78.95-11.69L78.95-11.69 78.95-26.15 85.62-26.15 85.62 0 84 0ZM97.4-1.76L97.4 9.96 90.69 9.96 90.69-26.15 92.3-26.15 94.96-23Q95.87-23.85 96.94-24.61 98.01-25.37 99.17-25.92 100.33-26.46 101.58-26.78 102.82-27.1 104.09-27.1L104.09-27.1Q106.85-27.1 109.28-26.11 111.71-25.12 113.53-23.32 115.35-21.51 116.4-18.96 117.45-16.41 117.45-13.31L117.45-13.31Q117.45-10.08 116.4-7.51 115.35-4.93 113.53-3.14 111.71-1.34 109.28-0.39 106.85 0.56 104.09 0.56L104.09 0.56Q103.22 0.56 102.35 0.37 101.48 0.17 100.64-0.16 99.8-0.49 98.98-0.9 98.16-1.32 97.4-1.76L97.4-1.76ZM110.76-13.31L110.76-13.31Q110.76-14.97 110.23-16.28 109.71-17.6 108.81-18.52 107.9-19.43 106.68-19.92 105.46-20.41 104.09-20.41L104.09-20.41Q102.73-20.41 101.52-19.92 100.31-19.43 99.41-18.52 98.5-17.6 97.98-16.28 97.45-14.97 97.45-13.31L97.45-13.31Q97.45-11.72 97.98-10.4 98.5-9.08 99.41-8.15 100.31-7.23 101.52-6.71 102.73-6.2 104.09-6.2L104.09-6.2Q105.46-6.2 106.68-6.71 107.9-7.23 108.81-8.15 109.71-9.08 110.23-10.4 110.76-11.72 110.76-13.31ZM146.45-26.1L146.45 0 144.84 0 142.25-3.59Q141.3-2.73 140.24-1.99 139.17-1.25 138-0.7 136.83-0.15 135.6 0.17 134.37 0.49 133.1 0.49L133.1 0.49Q130.34 0.49 127.91-0.44 125.48-1.37 123.66-3.14 121.84-4.91 120.79-7.47 119.74-10.03 119.74-13.31L119.74-13.31Q119.74-16.36 120.79-18.91 121.84-21.46 123.66-23.29 125.48-25.12 127.91-26.14 130.34-27.15 133.1-27.15L133.1-27.15Q134.37-27.15 135.61-26.83 136.86-26.51 138.03-25.95 139.2-25.39 140.26-24.63 141.32-23.88 142.25-23L142.25-23 144.84-26.1 146.45-26.1ZM139.74-13.31L139.74-13.31Q139.74-14.67 139.21-15.95 138.69-17.24 137.78-18.23 136.88-19.21 135.67-19.81 134.46-20.41 133.1-20.41L133.1-20.41Q131.73-20.41 130.52-19.95 129.31-19.48 128.42-18.58 127.53-17.68 127.02-16.35 126.5-15.01 126.5-13.31L126.5-13.31Q126.5-11.6 127.02-10.27 127.53-8.94 128.42-8.03 129.31-7.13 130.52-6.67 131.73-6.2 133.1-6.2L133.1-6.2Q134.46-6.2 135.67-6.8 136.88-7.4 137.78-8.39 138.69-9.38 139.21-10.66 139.74-11.94 139.74-13.31ZM194.22-35.01L194.22 0 186.73 0 173.23-23.05 173.23 0 166.22 0 166.22-35.01 173.72-35.01 187.22-11.94 187.22-35.01 194.22-35.01ZM224.88-13.31L224.88-13.31Q224.88-10.38 223.84-7.85 222.79-5.32 220.98-3.48 219.17-1.64 216.74-0.57 214.31 0.49 211.53 0.49L211.53 0.49Q208.77 0.49 206.34-0.57 203.91-1.64 202.09-3.48 200.28-5.32 199.23-7.85 198.18-10.38 198.18-13.31L198.18-13.31Q198.18-16.28 199.23-18.82 200.28-21.36 202.09-23.21 203.91-25.05 206.34-26.1 208.77-27.15 211.53-27.15L211.53-27.15Q214.31-27.15 216.74-26.16 219.17-25.17 220.98-23.35 222.79-21.53 223.84-18.98 224.88-16.43 224.88-13.31ZM218.17-13.31L218.17-13.31Q218.17-14.92 217.65-16.22 217.12-17.53 216.22-18.47 215.31-19.41 214.11-19.91 212.9-20.41 211.53-20.41L211.53-20.41Q210.16-20.41 208.95-19.91 207.75-19.41 206.86-18.47 205.96-17.53 205.45-16.22 204.94-14.92 204.94-13.31L204.94-13.31Q204.94-11.79 205.45-10.5 205.96-9.2 206.86-8.25 207.75-7.3 208.95-6.75 210.16-6.2 211.53-6.2L211.53-6.2Q212.9-6.2 214.11-6.71 215.31-7.23 216.22-8.15 217.12-9.08 217.65-10.4 218.17-11.72 218.17-13.31ZM246.54 0L241.48 0Q239.07 0 236.94-0.92 234.82-1.83 233.22-3.43 231.62-5.03 230.71-7.15 229.79-9.28 229.79-11.69L229.79-11.69 229.79-19.46 226.54-19.46 226.54-26.1 229.79-26.1 229.79-36.55 236.43-36.55 236.43-26.1 246.54-26.1 246.54-19.46 236.43-19.46 236.43-11.69Q236.43-10.64 236.82-9.73 237.21-8.81 237.9-8.13 238.58-7.45 239.51-7.04 240.43-6.64 241.48-6.64L241.48-6.64 246.54-6.64 246.54 0ZM273.17-21.46L260.67-6.4Q261.06-6.27 261.45-6.24 261.84-6.2 262.23-6.2L262.23-6.2Q263.21-6.2 264.11-6.47 265.02-6.74 265.81-7.24 266.6-7.74 267.23-8.46 267.85-9.18 268.24-10.06L268.24-10.06 273.12-5.15Q272.19-3.83 270.99-2.78 269.78-1.73 268.37-1 266.97-0.27 265.42 0.11 263.87 0.49 262.23 0.49L262.23 0.49Q259.47 0.49 257.05-0.54 254.62-1.56 252.8-3.39 250.98-5.22 249.93-7.75 248.88-10.28 248.88-13.31L248.88-13.31Q248.88-16.41 249.93-18.97 250.98-21.53 252.8-23.34 254.62-25.15 257.05-26.15 259.47-27.15 262.23-27.15L262.23-27.15Q263.87-27.15 265.43-26.76 266.99-26.37 268.4-25.63 269.8-24.9 271.02-23.84 272.24-22.78 273.17-21.46L273.17-21.46ZM256.33-9.84L264.09-20.14Q263.62-20.31 263.17-20.36 262.72-20.41 262.23-20.41L262.23-20.41Q260.87-20.41 259.66-19.91 258.45-19.41 257.56-18.48 256.67-17.55 256.15-16.25 255.64-14.94 255.64-13.31L255.64-13.31Q255.64-12.94 255.68-12.48 255.71-12.01 255.8-11.54 255.89-11.06 256.01-10.62 256.13-10.18 256.33-9.84L256.33-9.84ZM290.87 0L290.87 0 275.63 0 275.63-6.64 290.87-6.64Q291.55-6.64 292.04-7.13 292.53-7.62 292.53-8.3L292.53-8.3Q292.53-9.01 292.04-9.23 291.55-9.45 290.87-9.45L290.87-9.45 283.93-9.45Q282.2-9.45 280.69-10.11 279.17-10.77 278.05-11.9 276.93-13.04 276.28-14.55 275.63-16.06 275.63-17.8L275.63-17.8Q275.63-19.53 276.28-21.04 276.93-22.56 278.05-23.68 279.17-24.8 280.69-25.45 282.2-26.1 283.93-26.1L283.93-26.1 297.44-26.1 297.44-19.46 283.93-19.46Q283.25-19.46 282.76-18.97 282.27-18.48 282.27-17.8L282.27-17.8Q282.27-17.09 282.76-16.59 283.25-16.09 283.93-16.09L283.93-16.09 290.87-16.09Q292.58-16.09 294.09-15.52 295.6-14.94 296.73-13.92 297.85-12.89 298.51-11.45 299.17-10.01 299.17-8.3L299.17-8.3Q299.17-6.57 298.51-5.07 297.85-3.56 296.73-2.43 295.6-1.29 294.09-0.65 292.58 0 290.87 0Z" opacity="1" transform="matrix(1,0,0,1,0,0)" fill="#000000" class="wordmark-text-0" data-fill-palette-color="primary" id="text-0"></path></svg></g></svg></g></svg></g></svg></g><g transform="matrix(1,0,0,1,410.09992991685243,0)"><svg viewBox="0 0 85.35159501639345 85.35159501639345" height="85.35159501639345" width="85.35159501639345"><g data-palette-color="#1565c0"><rect width="23.329435971147543" height="85.35159501639345" fill="#000000" stroke="transparent" data-fill-palette-color="accent" x="0" fill-opacity="1"></rect><rect width="23.329435971147543" height="85.35159501639345" fill="#000000" stroke="transparent" data-fill-palette-color="accent" x="28.45053167213115" fill-opacity="0.75"></rect><rect width="23.329435971147543" height="85.35159501639345" fill="#000000" stroke="transparent" data-fill-palette-color="accent" x="56.9010633442623" fill-opacity="0.5"></rect></g></svg></g></svg></g><defs></defs></svg><rect width="395.52" height="68.13635877986715" fill="none" stroke="none" visibility="hidden"></rect></g></svg></g></svg>